<svg xmlns="http://www.w3.org/2000/svg" viewBox="0 0 1200 760" preserveAspectRatio="xMidYMid slice">
  <defs>
    <linearGradient id="bg" x1="0" y1="0" x2="1" y2="1">
      <stop offset="0%" stop-color="#0f1830" />
      <stop offset="100%" stop-color="#17294a" />
    </linearGradient>
    <linearGradient id="warm" x1="0" y1="0" x2="1" y2="0">
      <stop offset="0%" stop-color="#ff9c60" stop-opacity="0.9" />
      <stop offset="100%" stop-color="#ff4e75" stop-opacity="0.8" />
    </linearGradient>
  </defs>
  <rect width="1200" height="760" fill="url(#bg)" />
  <circle cx="240" cy="180" r="120" fill="rgba(255,255,255,0.1)" />
  <circle cx="950" cy="220" r="180" fill="rgba(255,255,255,0.08)" />
  <path d="M50 520 C240 420 520 620 760 520 C980 420 1120 580 1180 560" fill="none" stroke="rgba(255,156,96,0.25)" stroke-width="20" stroke-linecap="round" />
  <path d="M720 360 C780 280 860 260 940 330" fill="none" stroke="rgba(255,78,117,0.35)" stroke-width="28" stroke-linecap="round" />
  <rect x="130" y="420" width="420" height="220" rx="28" fill="rgba(255,255,255,0.06)" />
  <rect x="170" y="470" width="140" height="30" rx="14" fill="rgba(255,255,255,0.16)" />
  <rect x="170" y="520" width="290" height="24" rx="12" fill="rgba(255,255,255,0.1)" />
  <rect x="170" y="560" width="190" height="22" rx="11" fill="rgba(255,255,255,0.1)" />
  <rect x="680" y="430" width="340" height="210" rx="28" fill="rgba(255,255,255,0.07)" />
  <circle cx="920" cy="520" r="80" fill="url(#warm)" opacity="0.85" />
</svg>