<svg xmlns="http://www.w3.org/2000/svg" viewBox="0 0 1200 760" preserveAspectRatio="xMidYMid slice">
  <defs>
    <linearGradient id="bg-grad" x1="0" y1="0" x2="1" y2="1">
      <stop offset="0%" stop-color="#13182b" />
      <stop offset="100%" stop-color="#1f2a46" />
    </linearGradient>
    <linearGradient id="highlight" x1="0" y1="0" x2="1" y2="0">
      <stop offset="0%" stop-color="#ff7d6f" stop-opacity="0.95" />
      <stop offset="100%" stop-color="#e63946" stop-opacity="0.85" />
    </linearGradient>
  </defs>
  <rect width="1200" height="760" fill="url(#bg-grad)" />
  <circle cx="280" cy="220" r="160" fill="rgba(255,255,255,0.08)" />
  <circle cx="920" cy="180" r="100" fill="rgba(255,255,255,0.06)" />
  <circle cx="740" cy="560" r="220" fill="rgba(255,255,255,0.05)" />
  <g stroke="rgba(255,255,255,0.16)" stroke-width="2" fill="none">
    <path d="M120 640 C360 540 560 760 820 620" />
    <path d="M980 80 C1050 240 960 260 880 140" />
    <path d="M420 110 L540 80 L620 180 L500 210 Z" />
  </g>
  <g transform="translate(220 360)">
    <rect x="0" y="0" width="520" height="280" rx="28" fill="rgba(255,255,255,0.08)" />
    <rect x="36" y="42" width="152" height="108" rx="18" fill="rgba(255,255,255,0.14)" />
    <rect x="216" y="42" width="152" height="108" rx="18" fill="rgba(255,255,255,0.14)" />
    <rect x="36" y="164" width="332" height="28" rx="14" fill="rgba(255,255,255,0.08)" />
    <rect x="36" y="208" width="472" height="36" rx="18" fill="rgba(255,255,255,0.1)" />
    <path d="M76 116 h40 l16 -42 h-40 z" fill="rgba(255,255,255,0.16)" />
    <circle cx="420" cy="140" r="48" fill="rgba(255,255,255,0.06)" />
    <circle cx="420" cy="140" r="24" fill="rgba(255,255,255,0.14)" />
    <rect x="76" y="252" width="144" height="18" rx="9" fill="rgba(255,255,255,0.12)" />
  </g>
  <g transform="translate(760 340)">
    <rect x="0" y="0" width="260" height="180" rx="22" fill="rgba(255,255,255,0.08)" />
    <rect x="16" y="16" width="68" height="68" rx="16" fill="rgba(255,255,255,0.14)" />
    <rect x="16" y="102" width="192" height="62" rx="18" fill="rgba(255,255,255,0.12)" />
    <circle cx="198" cy="52" r="26" fill="url(#highlight)" opacity="0.9" />
    <circle cx="198" cy="52" r="12" fill="#fff" opacity="0.92" />
    <path d="M72 84 h120" stroke="rgba(255,255,255,0.18)" stroke-width="12" stroke-linecap="round" />
  </g>
</svg>
